<mxfile host="app.diagrams.net" agent="Mozilla/5.0 (Macintosh; Intel Mac OS X 10.15; rv:131.0) Gecko/20100101 Firefox/131.0" version="24.7.16">
  <diagram id="prtHgNgQTEPvFCAcTncT" name="Page-1">
    <mxGraphModel dx="1434" dy="769" grid="1" gridSize="10" guides="1" tooltips="1" connect="1" arrows="1" fold="1" page="1" pageScale="1" pageWidth="1169" pageHeight="827" math="0" shadow="0">
      <root>
        <mxCell id="0" />
        <mxCell id="1" parent="0" />
        <mxCell id="dNxyNK7c78bLwvsdeMH5-20" value="Player" style="swimlane;html=1;startSize=20;horizontal=0;" parent="1" vertex="1">
          <mxGeometry x="140" y="100" width="750" height="120" as="geometry" />
        </mxCell>
        <mxCell id="dNxyNK7c78bLwvsdeMH5-25" value="" style="edgeStyle=orthogonalEdgeStyle;rounded=0;orthogonalLoop=1;jettySize=auto;html=1;" parent="dNxyNK7c78bLwvsdeMH5-20" source="dNxyNK7c78bLwvsdeMH5-23" target="dNxyNK7c78bLwvsdeMH5-24" edge="1">
          <mxGeometry relative="1" as="geometry" />
        </mxCell>
        <mxCell id="dNxyNK7c78bLwvsdeMH5-23" value="Book Ball Machine" style="ellipse;whiteSpace=wrap;html=1;" parent="dNxyNK7c78bLwvsdeMH5-20" vertex="1">
          <mxGeometry x="30" y="30" width="60" height="60" as="geometry" />
        </mxCell>
        <mxCell id="0LqCJj8jT9JNZjTYpSwx-2" style="edgeStyle=orthogonalEdgeStyle;rounded=0;orthogonalLoop=1;jettySize=auto;html=1;" edge="1" parent="dNxyNK7c78bLwvsdeMH5-20" source="dNxyNK7c78bLwvsdeMH5-24" target="dNxyNK7c78bLwvsdeMH5-30">
          <mxGeometry relative="1" as="geometry" />
        </mxCell>
        <mxCell id="dNxyNK7c78bLwvsdeMH5-24" value="Court Booking" style="rounded=0;whiteSpace=wrap;html=1;fontFamily=Helvetica;fontSize=12;fontColor=#000000;align=center;perimeter=rectanglePerimeter;" parent="dNxyNK7c78bLwvsdeMH5-20" vertex="1">
          <mxGeometry x="120" y="30" width="80" height="60" as="geometry" />
        </mxCell>
        <mxCell id="dNxyNK7c78bLwvsdeMH5-30" value="Add &lt;br&gt;&quot;Ball Machine&quot;" style="rounded=0;whiteSpace=wrap;html=1;fontFamily=Helvetica;fontSize=12;fontColor=#000000;align=center;" parent="dNxyNK7c78bLwvsdeMH5-20" vertex="1">
          <mxGeometry x="240" y="30" width="80" height="60" as="geometry" />
        </mxCell>
        <mxCell id="0LqCJj8jT9JNZjTYpSwx-45" value="" style="edgeStyle=orthogonalEdgeStyle;rounded=0;orthogonalLoop=1;jettySize=auto;html=1;" edge="1" parent="dNxyNK7c78bLwvsdeMH5-20" source="0LqCJj8jT9JNZjTYpSwx-42" target="0LqCJj8jT9JNZjTYpSwx-44">
          <mxGeometry relative="1" as="geometry" />
        </mxCell>
        <mxCell id="0LqCJj8jT9JNZjTYpSwx-42" value="Get PIN" style="whiteSpace=wrap;html=1;fontColor=#000000;" vertex="1" parent="dNxyNK7c78bLwvsdeMH5-20">
          <mxGeometry x="503.75" y="30" width="57.5" height="60" as="geometry" />
        </mxCell>
        <mxCell id="0LqCJj8jT9JNZjTYpSwx-44" value="Unlock Lock" style="ellipse;whiteSpace=wrap;html=1;fontColor=#000000;" vertex="1" parent="dNxyNK7c78bLwvsdeMH5-20">
          <mxGeometry x="630" y="20" width="80" height="80" as="geometry" />
        </mxCell>
        <mxCell id="dNxyNK7c78bLwvsdeMH5-21" value="Admin" style="swimlane;html=1;startSize=20;horizontal=0;" parent="1" vertex="1">
          <mxGeometry x="140" y="400" width="600" height="120" as="geometry" />
        </mxCell>
        <mxCell id="dNxyNK7c78bLwvsdeMH5-28" value="Payment Done" style="rhombus;whiteSpace=wrap;html=1;fontFamily=Helvetica;fontSize=12;fontColor=#000000;align=center;" parent="dNxyNK7c78bLwvsdeMH5-21" vertex="1">
          <mxGeometry x="300" y="30" width="70" height="60" as="geometry" />
        </mxCell>
        <mxCell id="0LqCJj8jT9JNZjTYpSwx-10" value="" style="edgeStyle=orthogonalEdgeStyle;rounded=0;orthogonalLoop=1;jettySize=auto;html=1;entryX=0;entryY=0.5;entryDx=0;entryDy=0;" edge="1" parent="dNxyNK7c78bLwvsdeMH5-21" source="0LqCJj8jT9JNZjTYpSwx-7" target="dNxyNK7c78bLwvsdeMH5-28">
          <mxGeometry relative="1" as="geometry" />
        </mxCell>
        <mxCell id="0LqCJj8jT9JNZjTYpSwx-7" value="Generate Unique Payment Link" style="rounded=0;whiteSpace=wrap;html=1;" vertex="1" parent="dNxyNK7c78bLwvsdeMH5-21">
          <mxGeometry x="140" y="30" width="120" height="60" as="geometry" />
        </mxCell>
        <mxCell id="0LqCJj8jT9JNZjTYpSwx-36" style="edgeStyle=orthogonalEdgeStyle;rounded=0;orthogonalLoop=1;jettySize=auto;html=1;" edge="1" parent="dNxyNK7c78bLwvsdeMH5-21" source="0LqCJj8jT9JNZjTYpSwx-34" target="0LqCJj8jT9JNZjTYpSwx-7">
          <mxGeometry relative="1" as="geometry" />
        </mxCell>
        <mxCell id="0LqCJj8jT9JNZjTYpSwx-34" value="Read Email" style="rounded=0;whiteSpace=wrap;html=1;" vertex="1" parent="dNxyNK7c78bLwvsdeMH5-21">
          <mxGeometry x="50" y="30" width="60" height="60" as="geometry" />
        </mxCell>
        <mxCell id="0LqCJj8jT9JNZjTYpSwx-40" value="" style="edgeStyle=orthogonalEdgeStyle;rounded=0;orthogonalLoop=1;jettySize=auto;html=1;" edge="1" parent="dNxyNK7c78bLwvsdeMH5-21" source="0LqCJj8jT9JNZjTYpSwx-37" target="0LqCJj8jT9JNZjTYpSwx-39">
          <mxGeometry relative="1" as="geometry" />
        </mxCell>
        <mxCell id="0LqCJj8jT9JNZjTYpSwx-37" value="PIN Email" style="whiteSpace=wrap;html=1;fontColor=#000000;" vertex="1" parent="dNxyNK7c78bLwvsdeMH5-21">
          <mxGeometry x="400" y="30" width="50" height="60" as="geometry" />
        </mxCell>
        <mxCell id="0LqCJj8jT9JNZjTYpSwx-39" value="Send PIN to member" style="whiteSpace=wrap;html=1;fontColor=#000000;" vertex="1" parent="dNxyNK7c78bLwvsdeMH5-21">
          <mxGeometry x="495" y="30" width="75" height="60" as="geometry" />
        </mxCell>
        <mxCell id="dNxyNK7c78bLwvsdeMH5-22" value="Lock App" style="swimlane;html=1;startSize=20;horizontal=0;" parent="1" vertex="1">
          <mxGeometry x="140" y="550" width="270" height="120" as="geometry" />
        </mxCell>
        <mxCell id="0LqCJj8jT9JNZjTYpSwx-11" value="Generate PIN" style="whiteSpace=wrap;html=1;fontColor=#000000;" vertex="1" parent="dNxyNK7c78bLwvsdeMH5-22">
          <mxGeometry x="40" y="36" width="65" height="60" as="geometry" />
        </mxCell>
        <mxCell id="0LqCJj8jT9JNZjTYpSwx-15" value="Send Pin" style="whiteSpace=wrap;html=1;fontColor=#000000;" vertex="1" parent="dNxyNK7c78bLwvsdeMH5-22">
          <mxGeometry x="160" y="36" width="67.5" height="60" as="geometry" />
        </mxCell>
        <mxCell id="0LqCJj8jT9JNZjTYpSwx-16" value="" style="edgeStyle=orthogonalEdgeStyle;rounded=0;orthogonalLoop=1;jettySize=auto;html=1;" edge="1" parent="dNxyNK7c78bLwvsdeMH5-22" source="0LqCJj8jT9JNZjTYpSwx-11" target="0LqCJj8jT9JNZjTYpSwx-15">
          <mxGeometry relative="1" as="geometry" />
        </mxCell>
        <mxCell id="0LqCJj8jT9JNZjTYpSwx-17" value="ebookingonline" style="swimlane;html=1;startSize=20;horizontal=0;" vertex="1" parent="1">
          <mxGeometry x="140" y="250" width="240" height="120" as="geometry" />
        </mxCell>
        <mxCell id="0LqCJj8jT9JNZjTYpSwx-5" value="Send email to tennisciac" style="rounded=0;whiteSpace=wrap;html=1;" vertex="1" parent="0LqCJj8jT9JNZjTYpSwx-17">
          <mxGeometry x="50" y="30" width="120" height="60" as="geometry" />
        </mxCell>
        <mxCell id="0LqCJj8jT9JNZjTYpSwx-29" style="edgeStyle=orthogonalEdgeStyle;rounded=0;orthogonalLoop=1;jettySize=auto;html=1;entryX=0.433;entryY=0.083;entryDx=0;entryDy=0;entryPerimeter=0;" edge="1" parent="1" source="dNxyNK7c78bLwvsdeMH5-30" target="0LqCJj8jT9JNZjTYpSwx-5">
          <mxGeometry relative="1" as="geometry">
            <Array as="points">
              <mxPoint x="420" y="230" />
              <mxPoint x="242" y="230" />
            </Array>
          </mxGeometry>
        </mxCell>
        <mxCell id="0LqCJj8jT9JNZjTYpSwx-35" style="edgeStyle=orthogonalEdgeStyle;rounded=0;orthogonalLoop=1;jettySize=auto;html=1;" edge="1" parent="1" source="0LqCJj8jT9JNZjTYpSwx-5" target="0LqCJj8jT9JNZjTYpSwx-34">
          <mxGeometry relative="1" as="geometry" />
        </mxCell>
        <mxCell id="0LqCJj8jT9JNZjTYpSwx-12" value="YES" style="edgeStyle=orthogonalEdgeStyle;rounded=0;orthogonalLoop=1;jettySize=auto;html=1;" edge="1" parent="1" source="dNxyNK7c78bLwvsdeMH5-28" target="0LqCJj8jT9JNZjTYpSwx-11">
          <mxGeometry x="-0.9441" y="-15" relative="1" as="geometry">
            <Array as="points">
              <mxPoint x="475" y="530" />
              <mxPoint x="213" y="530" />
            </Array>
            <mxPoint as="offset" />
          </mxGeometry>
        </mxCell>
        <mxCell id="0LqCJj8jT9JNZjTYpSwx-38" value="" style="edgeStyle=orthogonalEdgeStyle;rounded=0;orthogonalLoop=1;jettySize=auto;html=1;" edge="1" parent="1" source="0LqCJj8jT9JNZjTYpSwx-15" target="0LqCJj8jT9JNZjTYpSwx-37">
          <mxGeometry relative="1" as="geometry">
            <Array as="points">
              <mxPoint x="334" y="540" />
              <mxPoint x="565" y="540" />
            </Array>
          </mxGeometry>
        </mxCell>
        <mxCell id="0LqCJj8jT9JNZjTYpSwx-43" value="" style="edgeStyle=orthogonalEdgeStyle;rounded=0;orthogonalLoop=1;jettySize=auto;html=1;" edge="1" parent="1" source="0LqCJj8jT9JNZjTYpSwx-39" target="0LqCJj8jT9JNZjTYpSwx-42">
          <mxGeometry relative="1" as="geometry" />
        </mxCell>
      </root>
    </mxGraphModel>
  </diagram>
</mxfile>
